<mxfile host="app.diagrams.net" modified="2023-12-28T17:29:52.143Z" agent="Mozilla/5.0 (Windows NT 10.0; Win64; x64) AppleWebKit/537.36 (KHTML, like Gecko) Chrome/119.0.0.0 Safari/537.36 OPR/105.0.0.0" etag="xiDGK9JQ2FIUiv-dIVni" version="22.1.15" type="device">
  <diagram name="Seite-1" id="wkAAZkA4Ww9jcbIoOe1i">
    <mxGraphModel dx="389" dy="218" grid="1" gridSize="10" guides="1" tooltips="1" connect="1" arrows="1" fold="1" page="1" pageScale="1" pageWidth="827" pageHeight="1169" math="0" shadow="0">
      <root>
        <mxCell id="0" />
        <mxCell id="1" parent="0" />
        <mxCell id="8VSPB7BsXGmXy0ltl116-1" value="Shearing" style="rounded=1;whiteSpace=wrap;html=1;fillColor=#e1d5e7;strokeColor=#9673a6;" vertex="1" parent="1">
          <mxGeometry x="280" y="120" width="80" height="80" as="geometry" />
        </mxCell>
        <mxCell id="8VSPB7BsXGmXy0ltl116-2" value="" style="ellipse;whiteSpace=wrap;html=1;fillColor=#dae8fc;strokeColor=#6c8ebf;" vertex="1" parent="1">
          <mxGeometry x="180" y="150" width="10" height="10" as="geometry" />
        </mxCell>
        <mxCell id="8VSPB7BsXGmXy0ltl116-3" value="" style="ellipse;whiteSpace=wrap;html=1;fillColor=#dae8fc;strokeColor=#6c8ebf;" vertex="1" parent="1">
          <mxGeometry x="190" y="150" width="10" height="10" as="geometry" />
        </mxCell>
        <mxCell id="8VSPB7BsXGmXy0ltl116-4" value="" style="ellipse;whiteSpace=wrap;html=1;fillColor=#dae8fc;strokeColor=#6c8ebf;" vertex="1" parent="1">
          <mxGeometry x="200" y="150" width="10" height="10" as="geometry" />
        </mxCell>
        <mxCell id="8VSPB7BsXGmXy0ltl116-5" value="" style="ellipse;whiteSpace=wrap;html=1;fillColor=#dae8fc;strokeColor=#6c8ebf;" vertex="1" parent="1">
          <mxGeometry x="180" y="160" width="10" height="10" as="geometry" />
        </mxCell>
        <mxCell id="8VSPB7BsXGmXy0ltl116-6" value="" style="ellipse;whiteSpace=wrap;html=1;fillColor=#dae8fc;strokeColor=#6c8ebf;" vertex="1" parent="1">
          <mxGeometry x="190" y="160" width="10" height="10" as="geometry" />
        </mxCell>
        <mxCell id="8VSPB7BsXGmXy0ltl116-7" value="" style="ellipse;whiteSpace=wrap;html=1;fillColor=#dae8fc;strokeColor=#6c8ebf;" vertex="1" parent="1">
          <mxGeometry x="200" y="160" width="10" height="10" as="geometry" />
        </mxCell>
        <mxCell id="8VSPB7BsXGmXy0ltl116-8" value="" style="ellipse;whiteSpace=wrap;html=1;fillColor=#dae8fc;strokeColor=#6c8ebf;" vertex="1" parent="1">
          <mxGeometry x="180" y="170" width="10" height="10" as="geometry" />
        </mxCell>
        <mxCell id="8VSPB7BsXGmXy0ltl116-9" value="" style="ellipse;whiteSpace=wrap;html=1;fillColor=#dae8fc;strokeColor=#6c8ebf;" vertex="1" parent="1">
          <mxGeometry x="190" y="170" width="10" height="10" as="geometry" />
        </mxCell>
        <mxCell id="8VSPB7BsXGmXy0ltl116-10" value="" style="ellipse;whiteSpace=wrap;html=1;fillColor=#dae8fc;strokeColor=#6c8ebf;" vertex="1" parent="1">
          <mxGeometry x="200" y="170" width="10" height="10" as="geometry" />
        </mxCell>
        <mxCell id="8VSPB7BsXGmXy0ltl116-11" value="" style="endArrow=classic;html=1;rounded=0;" edge="1" parent="1">
          <mxGeometry width="50" height="50" relative="1" as="geometry">
            <mxPoint x="180" y="180" as="sourcePoint" />
            <mxPoint x="180" y="130" as="targetPoint" />
          </mxGeometry>
        </mxCell>
        <mxCell id="8VSPB7BsXGmXy0ltl116-12" value="" style="endArrow=classic;html=1;rounded=0;" edge="1" parent="1">
          <mxGeometry width="50" height="50" relative="1" as="geometry">
            <mxPoint x="180" y="180" as="sourcePoint" />
            <mxPoint x="240" y="180" as="targetPoint" />
          </mxGeometry>
        </mxCell>
        <mxCell id="8VSPB7BsXGmXy0ltl116-13" value="" style="ellipse;whiteSpace=wrap;html=1;fillColor=#dae8fc;strokeColor=#6c8ebf;" vertex="1" parent="1">
          <mxGeometry x="420" y="150" width="10" height="10" as="geometry" />
        </mxCell>
        <mxCell id="8VSPB7BsXGmXy0ltl116-14" value="" style="ellipse;whiteSpace=wrap;html=1;fillColor=#dae8fc;strokeColor=#6c8ebf;" vertex="1" parent="1">
          <mxGeometry x="430" y="150" width="10" height="10" as="geometry" />
        </mxCell>
        <mxCell id="8VSPB7BsXGmXy0ltl116-15" value="" style="ellipse;whiteSpace=wrap;html=1;fillColor=#dae8fc;strokeColor=#6c8ebf;" vertex="1" parent="1">
          <mxGeometry x="440" y="150" width="10" height="10" as="geometry" />
        </mxCell>
        <mxCell id="8VSPB7BsXGmXy0ltl116-16" value="" style="ellipse;whiteSpace=wrap;html=1;fillColor=#dae8fc;strokeColor=#6c8ebf;" vertex="1" parent="1">
          <mxGeometry x="410" y="160" width="10" height="10" as="geometry" />
        </mxCell>
        <mxCell id="8VSPB7BsXGmXy0ltl116-17" value="" style="ellipse;whiteSpace=wrap;html=1;fillColor=#dae8fc;strokeColor=#6c8ebf;" vertex="1" parent="1">
          <mxGeometry x="420" y="160" width="10" height="10" as="geometry" />
        </mxCell>
        <mxCell id="8VSPB7BsXGmXy0ltl116-18" value="" style="ellipse;whiteSpace=wrap;html=1;fillColor=#dae8fc;strokeColor=#6c8ebf;" vertex="1" parent="1">
          <mxGeometry x="430" y="160" width="10" height="10" as="geometry" />
        </mxCell>
        <mxCell id="8VSPB7BsXGmXy0ltl116-19" value="" style="ellipse;whiteSpace=wrap;html=1;fillColor=#dae8fc;strokeColor=#6c8ebf;" vertex="1" parent="1">
          <mxGeometry x="400" y="170" width="10" height="10" as="geometry" />
        </mxCell>
        <mxCell id="8VSPB7BsXGmXy0ltl116-20" value="" style="ellipse;whiteSpace=wrap;html=1;fillColor=#dae8fc;strokeColor=#6c8ebf;" vertex="1" parent="1">
          <mxGeometry x="410" y="170" width="10" height="10" as="geometry" />
        </mxCell>
        <mxCell id="8VSPB7BsXGmXy0ltl116-21" value="" style="ellipse;whiteSpace=wrap;html=1;fillColor=#dae8fc;strokeColor=#6c8ebf;" vertex="1" parent="1">
          <mxGeometry x="420" y="170" width="10" height="10" as="geometry" />
        </mxCell>
        <mxCell id="8VSPB7BsXGmXy0ltl116-22" value="" style="endArrow=classic;html=1;rounded=0;" edge="1" parent="1">
          <mxGeometry width="50" height="50" relative="1" as="geometry">
            <mxPoint x="400" y="180" as="sourcePoint" />
            <mxPoint x="400" y="130" as="targetPoint" />
          </mxGeometry>
        </mxCell>
        <mxCell id="8VSPB7BsXGmXy0ltl116-24" value="" style="endArrow=classic;html=1;rounded=0;" edge="1" parent="1">
          <mxGeometry width="50" height="50" relative="1" as="geometry">
            <mxPoint x="400" y="180" as="sourcePoint" />
            <mxPoint x="460" y="180" as="targetPoint" />
          </mxGeometry>
        </mxCell>
        <mxCell id="8VSPB7BsXGmXy0ltl116-25" value="" style="endArrow=classic;html=1;rounded=0;entryX=0;entryY=0.5;entryDx=0;entryDy=0;strokeColor=#666666;" edge="1" parent="1" target="8VSPB7BsXGmXy0ltl116-1">
          <mxGeometry width="50" height="50" relative="1" as="geometry">
            <mxPoint x="250" y="160" as="sourcePoint" />
            <mxPoint x="350" y="170" as="targetPoint" />
          </mxGeometry>
        </mxCell>
        <mxCell id="8VSPB7BsXGmXy0ltl116-27" value="" style="endArrow=classic;html=1;rounded=0;entryX=0;entryY=0.5;entryDx=0;entryDy=0;strokeColor=#666666;" edge="1" parent="1">
          <mxGeometry width="50" height="50" relative="1" as="geometry">
            <mxPoint x="360" y="160" as="sourcePoint" />
            <mxPoint x="390" y="160" as="targetPoint" />
          </mxGeometry>
        </mxCell>
      </root>
    </mxGraphModel>
  </diagram>
</mxfile>
